<?xml version="1.0" encoding="UTF-8" standalone="no"?>
<!DOCTYPE svg PUBLIC "-//W3C//DTD SVG 1.1//EN"
 "http://www.w3.org/Graphics/SVG/1.1/DTD/svg11.dtd">
<!-- Generated by graphviz version 13.1.2 (20250808.2320)
 -->
<!-- Title: topology3 Pages: 1 -->
<svg width="825pt" height="205pt"
 viewBox="0.00 0.00 825.00 205.00" xmlns="http://www.w3.org/2000/svg" xmlns:xlink="http://www.w3.org/1999/xlink">
<g id="graph0" class="graph" transform="scale(1 1) rotate(0) translate(4 200.7)">
<title>topology3</title>
<g id="clust1" class="cluster">
<title>cluster_gateway</title>
<path fill="none" stroke="#555555" stroke-dasharray="5,2" d="M20,-108.7C20,-108.7 613.95,-108.7 613.95,-108.7 619.95,-108.7 625.95,-114.7 625.95,-120.7 625.95,-120.7 625.95,-176.7 625.95,-176.7 625.95,-182.7 619.95,-188.7 613.95,-188.7 613.95,-188.7 20,-188.7 20,-188.7 14,-188.7 8,-182.7 8,-176.7 8,-176.7 8,-120.7 8,-120.7 8,-114.7 14,-108.7 20,-108.7"/>
<text xml:space="preserve" text-anchor="middle" x="39.62" y="-173.3" font-family="Helvetica,sans-Serif" font-size="12.00">Gateway</text>
</g>
<!-- HW -->
<g id="node1" class="node">
<title>HW</title>
<path fill="#e8f0fe" stroke="black" d="M71.05,-158.4C71.05,-158.4 28,-158.4 28,-158.4 22,-158.4 16,-152.4 16,-146.4 16,-146.4 16,-129 16,-129 16,-123 22,-117 28,-117 28,-117 71.05,-117 71.05,-117 77.05,-117 83.05,-123 83.05,-129 83.05,-129 83.05,-146.4 83.05,-146.4 83.05,-152.4 77.05,-158.4 71.05,-158.4"/>
<text xml:space="preserve" text-anchor="middle" x="49.52" y="-140.75" font-family="Helvetica,sans-Serif" font-size="11.00">SX130x</text>
<text xml:space="preserve" text-anchor="middle" x="49.52" y="-127.25" font-family="Helvetica,sans-Serif" font-size="11.00">Radio</text>
</g>
<!-- PF -->
<g id="node2" class="node">
<title>PF</title>
<path fill="#f0e8fe" stroke="black" d="M232.6,-155.7C232.6,-155.7 166.3,-155.7 166.3,-155.7 160.3,-155.7 154.3,-149.7 154.3,-143.7 154.3,-143.7 154.3,-131.7 154.3,-131.7 154.3,-125.7 160.3,-119.7 166.3,-119.7 166.3,-119.7 232.6,-119.7 232.6,-119.7 238.6,-119.7 244.6,-125.7 244.6,-131.7 244.6,-131.7 244.6,-143.7 244.6,-143.7 244.6,-149.7 238.6,-155.7 232.6,-155.7"/>
<text xml:space="preserve" text-anchor="middle" x="199.45" y="-134" font-family="Helvetica,sans-Serif" font-size="11.00">lora_pkt_fwd</text>
</g>
<!-- HW&#45;&gt;PF -->
<g id="edge1" class="edge">
<title>HW&#45;&gt;PF</title>
<path fill="none" stroke="black" d="M83.35,-137.7C100.72,-137.7 122.51,-137.7 142.45,-137.7"/>
<polygon fill="black" stroke="black" points="142.42,-141.2 152.42,-137.7 142.42,-134.2 142.42,-141.2"/>
<text xml:space="preserve" text-anchor="middle" x="118.67" y="-139.65" font-family="Helvetica,sans-Serif" font-size="9.00">SPI/USB</text>
</g>
<!-- MX -->
<g id="node3" class="node">
<title>MX</title>
<path fill="#fde8e8" stroke="black" d="M408.4,-158.4C408.4,-158.4 350.35,-158.4 350.35,-158.4 344.35,-158.4 338.35,-152.4 338.35,-146.4 338.35,-146.4 338.35,-129 338.35,-129 338.35,-123 344.35,-117 350.35,-117 350.35,-117 408.4,-117 408.4,-117 414.4,-117 420.4,-123 420.4,-129 420.4,-129 420.4,-146.4 420.4,-146.4 420.4,-152.4 414.4,-158.4 408.4,-158.4"/>
<text xml:space="preserve" text-anchor="middle" x="379.37" y="-140.75" font-family="Helvetica,sans-Serif" font-size="11.00">ChirpStack</text>
<text xml:space="preserve" text-anchor="middle" x="379.37" y="-127.25" font-family="Helvetica,sans-Serif" font-size="11.00">Multiplexer</text>
</g>
<!-- PF&#45;&gt;MX -->
<g id="edge2" class="edge">
<title>PF&#45;&gt;MX</title>
<path fill="none" stroke="black" d="M244.89,-137.7C269.7,-137.7 300.74,-137.7 326.65,-137.7"/>
<polygon fill="black" stroke="black" points="326.63,-141.2 336.63,-137.7 326.63,-134.2 326.63,-141.2"/>
<text xml:space="preserve" text-anchor="middle" x="291.47" y="-139.65" font-family="Helvetica,sans-Serif" font-size="9.00">Semtech UDP</text>
</g>
<!-- RB -->
<g id="node4" class="node">
<title>RB</title>
<path fill="#d4edda" stroke="#28a745" stroke-width="2" d="M605.95,-155.7C605.95,-155.7 526.15,-155.7 526.15,-155.7 520.15,-155.7 514.15,-149.7 514.15,-143.7 514.15,-143.7 514.15,-131.7 514.15,-131.7 514.15,-125.7 520.15,-119.7 526.15,-119.7 526.15,-119.7 605.95,-119.7 605.95,-119.7 611.95,-119.7 617.95,-125.7 617.95,-131.7 617.95,-131.7 617.95,-143.7 617.95,-143.7 617.95,-149.7 611.95,-155.7 605.95,-155.7"/>
<text xml:space="preserve" text-anchor="middle" x="566.05" y="-134" font-family="Helvetica,sans-Serif" font-size="11.00">rak&#45;basicstation</text>
</g>
<!-- MX&#45;&gt;RB -->
<g id="edge3" class="edge">
<title>MX&#45;&gt;RB</title>
<path fill="none" stroke="black" d="M420.45,-137.7C444.3,-137.7 475.1,-137.7 502.13,-137.7"/>
<polygon fill="black" stroke="black" points="501.95,-141.2 511.95,-137.7 501.95,-134.2 501.95,-141.2"/>
<text xml:space="preserve" text-anchor="middle" x="467.27" y="-139.65" font-family="Helvetica,sans-Serif" font-size="9.00">Semtech UDP</text>
</g>
<!-- LNS1 -->
<g id="node5" class="node">
<title>LNS1</title>
<path fill="#fff3cd" stroke="black" d="M595.07,-100.4C595.07,-100.4 537.02,-100.4 537.02,-100.4 531.02,-100.4 525.02,-94.4 525.02,-88.4 525.02,-88.4 525.02,-71 525.02,-71 525.02,-65 531.02,-59 537.02,-59 537.02,-59 595.07,-59 595.07,-59 601.07,-59 607.07,-65 607.07,-71 607.07,-71 607.07,-88.4 607.07,-88.4 607.07,-94.4 601.07,-100.4 595.07,-100.4"/>
<text xml:space="preserve" text-anchor="middle" x="566.05" y="-82.75" font-family="Helvetica,sans-Serif" font-size="11.00">LNS 1</text>
<text xml:space="preserve" text-anchor="middle" x="566.05" y="-69.25" font-family="Helvetica,sans-Serif" font-size="11.00">ChirpStack</text>
</g>
<!-- MX&#45;&gt;LNS1 -->
<g id="edge4" class="edge">
<title>MX&#45;&gt;LNS1</title>
<path fill="none" stroke="black" d="M420.45,-125.11C447.82,-116.52 484.33,-105.05 513.82,-95.79"/>
<polygon fill="black" stroke="black" points="514.8,-99.15 523.29,-92.81 512.7,-92.47 514.8,-99.15"/>
<text xml:space="preserve" text-anchor="middle" x="467.27" y="-120.89" font-family="Helvetica,sans-Serif" font-size="9.00">Semtech UDP</text>
</g>
<!-- LNS2 -->
<g id="node6" class="node">
<title>LNS2</title>
<path fill="#fff3cd" stroke="black" d="M583.82,-41.4C583.82,-41.4 548.27,-41.4 548.27,-41.4 542.27,-41.4 536.27,-35.4 536.27,-29.4 536.27,-29.4 536.27,-12 536.27,-12 536.27,-6 542.27,0 548.27,0 548.27,0 583.82,0 583.82,0 589.82,0 595.82,-6 595.82,-12 595.82,-12 595.82,-29.4 595.82,-29.4 595.82,-35.4 589.82,-41.4 583.82,-41.4"/>
<text xml:space="preserve" text-anchor="middle" x="566.05" y="-23.75" font-family="Helvetica,sans-Serif" font-size="11.00">LNS 2</text>
<text xml:space="preserve" text-anchor="middle" x="566.05" y="-10.25" font-family="Helvetica,sans-Serif" font-size="11.00">TTN</text>
</g>
<!-- MX&#45;&gt;LNS2 -->
<g id="edge5" class="edge">
<title>MX&#45;&gt;LNS2</title>
<path fill="none" stroke="black" d="M402.26,-116.51C412.73,-106.94 425.72,-95.87 438.4,-87.2 466.15,-68.22 499.96,-50.72 525.66,-38.44"/>
<polygon fill="black" stroke="black" points="526.86,-41.75 534.42,-34.32 523.88,-35.42 526.86,-41.75"/>
<text xml:space="preserve" text-anchor="middle" x="467.27" y="-89.15" font-family="Helvetica,sans-Serif" font-size="9.00">Semtech UDP</text>
</g>
<!-- LNS3 -->
<g id="node7" class="node">
<title>LNS3</title>
<path fill="#fff3cd" stroke="black" d="M805,-158.4C805,-158.4 716.95,-158.4 716.95,-158.4 710.95,-158.4 704.95,-152.4 704.95,-146.4 704.95,-146.4 704.95,-129 704.95,-129 704.95,-123 710.95,-117 716.95,-117 716.95,-117 805,-117 805,-117 811,-117 817,-123 817,-129 817,-129 817,-146.4 817,-146.4 817,-152.4 811,-158.4 805,-158.4"/>
<text xml:space="preserve" text-anchor="middle" x="760.97" y="-140.75" font-family="Helvetica,sans-Serif" font-size="11.00">LNS 3</text>
<text xml:space="preserve" text-anchor="middle" x="760.97" y="-127.25" font-family="Helvetica,sans-Serif" font-size="11.00">BasicStation&#45;only</text>
</g>
<!-- RB&#45;&gt;LNS3 -->
<g id="edge6" class="edge">
<title>RB&#45;&gt;LNS3</title>
<path fill="none" stroke="#0366d6" stroke-width="2" d="M618.75,-137.7C641.27,-137.7 667.97,-137.7 692.06,-137.7"/>
<polygon fill="#0366d6" stroke="#0366d6" stroke-width="2" points="691.72,-141.2 701.72,-137.7 691.72,-134.2 691.72,-141.2"/>
<text xml:space="preserve" text-anchor="middle" x="661.45" y="-150.15" font-family="Helvetica,sans-Serif" font-size="9.00">WebSocket</text>
<text xml:space="preserve" text-anchor="middle" x="661.45" y="-139.65" font-family="Helvetica,sans-Serif" font-size="9.00">BasicStation</text>
</g>
</g>
</svg>
