<?xml version="1.0" encoding="UTF-8" standalone="no"?>
<!DOCTYPE svg PUBLIC "-//W3C//DTD SVG 1.1//EN"
 "http://www.w3.org/Graphics/SVG/1.1/DTD/svg11.dtd">
<!-- Generated by graphviz version 13.1.2 (20250808.2320)
 -->
<!-- Title: topology4 Pages: 1 -->
<svg width="946pt" height="213pt"
 viewBox="0.00 0.00 946.00 213.00" xmlns="http://www.w3.org/2000/svg" xmlns:xlink="http://www.w3.org/1999/xlink">
<g id="graph0" class="graph" transform="scale(1 1) rotate(0) translate(4 209)">
<title>topology4</title>
<g id="clust1" class="cluster">
<title>cluster_relay</title>
<path fill="none" stroke="#555555" stroke-dasharray="5,2" d="M20,-96C20,-96 435.9,-96 435.9,-96 441.9,-96 447.9,-102 447.9,-108 447.9,-108 447.9,-185 447.9,-185 447.9,-191 441.9,-197 435.9,-197 435.9,-197 20,-197 20,-197 14,-197 8,-191 8,-185 8,-185 8,-108 8,-108 8,-102 14,-96 20,-96"/>
<text xml:space="preserve" text-anchor="middle" x="56.88" y="-181.6" font-family="Helvetica,sans-Serif" font-size="12.00">Relay Gateway</text>
</g>
<g id="clust2" class="cluster">
<title>cluster_border</title>
<path fill="none" stroke="#555555" stroke-dasharray="5,2" d="M187.17,-8C187.17,-8 742.25,-8 742.25,-8 748.25,-8 754.25,-14 754.25,-20 754.25,-20 754.25,-76 754.25,-76 754.25,-82 748.25,-88 742.25,-88 742.25,-88 187.17,-88 187.17,-88 181.17,-88 175.17,-82 175.17,-76 175.17,-76 175.17,-20 175.17,-20 175.17,-14 181.17,-8 187.17,-8"/>
<text xml:space="preserve" text-anchor="middle" x="226.3" y="-72.6" font-family="Helvetica,sans-Serif" font-size="12.00">Border Gateway</text>
</g>
<!-- RHW -->
<g id="node1" class="node">
<title>RHW</title>
<path fill="#e8f0fe" stroke="black" d="M71.05,-145.7C71.05,-145.7 28,-145.7 28,-145.7 22,-145.7 16,-139.7 16,-133.7 16,-133.7 16,-116.3 16,-116.3 16,-110.3 22,-104.3 28,-104.3 28,-104.3 71.05,-104.3 71.05,-104.3 77.05,-104.3 83.05,-110.3 83.05,-116.3 83.05,-116.3 83.05,-133.7 83.05,-133.7 83.05,-139.7 77.05,-145.7 71.05,-145.7"/>
<text xml:space="preserve" text-anchor="middle" x="49.52" y="-128.05" font-family="Helvetica,sans-Serif" font-size="11.00">SX130x</text>
<text xml:space="preserve" text-anchor="middle" x="49.52" y="-114.55" font-family="Helvetica,sans-Serif" font-size="11.00">Radio</text>
</g>
<!-- RCD -->
<g id="node2" class="node">
<title>RCD</title>
<path fill="#e8f0fe" stroke="black" d="M253.6,-143C253.6,-143 179.8,-143 179.8,-143 173.8,-143 167.8,-137 167.8,-131 167.8,-131 167.8,-119 167.8,-119 167.8,-113 173.8,-107 179.8,-107 179.8,-107 253.6,-107 253.6,-107 259.6,-107 265.6,-113 265.6,-119 265.6,-119 265.6,-131 265.6,-131 265.6,-137 259.6,-143 253.6,-143"/>
<text xml:space="preserve" text-anchor="middle" x="216.7" y="-121.3" font-family="Helvetica,sans-Serif" font-size="11.00">Concentratord</text>
</g>
<!-- RHW&#45;&gt;RCD -->
<g id="edge1" class="edge">
<title>RHW&#45;&gt;RCD</title>
<path fill="none" stroke="black" d="M83.41,-123.88C89.28,-123.72 95.35,-123.58 101.05,-123.5 122.71,-123.18 128.13,-123.25 149.8,-123.5 151.86,-123.52 153.95,-123.55 156.06,-123.58"/>
<polygon fill="black" stroke="black" points="155.9,-127.08 165.96,-123.75 156.02,-120.08 155.9,-127.08"/>
<text xml:space="preserve" text-anchor="middle" x="125.42" y="-125.45" font-family="Helvetica,sans-Serif" font-size="9.00">SPI/USB</text>
</g>
<!-- BHW -->
<g id="node4" class="node">
<title>BHW</title>
<path fill="#e8f0fe" stroke="black" d="M238.22,-57.7C238.22,-57.7 195.17,-57.7 195.17,-57.7 189.17,-57.7 183.17,-51.7 183.17,-45.7 183.17,-45.7 183.17,-28.3 183.17,-28.3 183.17,-22.3 189.17,-16.3 195.17,-16.3 195.17,-16.3 238.22,-16.3 238.22,-16.3 244.22,-16.3 250.22,-22.3 250.22,-28.3 250.22,-28.3 250.22,-45.7 250.22,-45.7 250.22,-51.7 244.22,-57.7 238.22,-57.7"/>
<text xml:space="preserve" text-anchor="middle" x="216.7" y="-40.05" font-family="Helvetica,sans-Serif" font-size="11.00">SX130x</text>
<text xml:space="preserve" text-anchor="middle" x="216.7" y="-26.55" font-family="Helvetica,sans-Serif" font-size="11.00">Radio</text>
</g>
<!-- RHW&#45;&gt;BHW -->
<g id="edge8" class="edge">
<title>RHW&#45;&gt;BHW</title>
<path fill="none" stroke="#dc3545" stroke-width="2" stroke-dasharray="1,5" d="M83.41,-107.42C89.28,-104.28 95.35,-101.04 101.05,-98 124.38,-85.56 150.4,-71.71 171.74,-60.36"/>
<polygon fill="#dc3545" stroke="#dc3545" stroke-width="2" points="173.22,-63.54 180.4,-55.76 169.93,-57.36 173.22,-63.54"/>
<text xml:space="preserve" text-anchor="middle" x="125.42" y="-110.45" font-family="Helvetica,sans-Serif" font-size="9.00">LoRa Relay</text>
<text xml:space="preserve" text-anchor="middle" x="125.42" y="-99.95" font-family="Helvetica,sans-Serif" font-size="9.00">Packet</text>
</g>
<!-- RCD&#45;&gt;RHW -->
<g id="edge4" class="edge">
<title>RCD&#45;&gt;RHW</title>
<path fill="none" stroke="black" stroke-dasharray="5,2" d="M167.55,-132.34C161.58,-133.03 155.56,-133.61 149.8,-134 128.18,-135.47 122.63,-135.91 101.05,-134 98.89,-133.81 96.68,-133.57 94.45,-133.3"/>
<polygon fill="black" stroke="black" points="95.19,-129.87 84.8,-131.92 94.2,-136.8 95.19,-129.87"/>
<text xml:space="preserve" text-anchor="middle" x="125.42" y="-137.22" font-family="Helvetica,sans-Serif" font-size="9.00">TX</text>
</g>
<!-- RGM -->
<g id="node3" class="node">
<title>RGM</title>
<path fill="#fde8e8" stroke="black" d="M427.9,-151.7C427.9,-151.7 351.1,-151.7 351.1,-151.7 345.1,-151.7 339.1,-145.7 339.1,-139.7 339.1,-139.7 339.1,-122.3 339.1,-122.3 339.1,-116.3 345.1,-110.3 351.1,-110.3 351.1,-110.3 427.9,-110.3 427.9,-110.3 433.9,-110.3 439.9,-116.3 439.9,-122.3 439.9,-122.3 439.9,-139.7 439.9,-139.7 439.9,-145.7 433.9,-151.7 427.9,-151.7"/>
<text xml:space="preserve" text-anchor="middle" x="389.5" y="-134.05" font-family="Helvetica,sans-Serif" font-size="11.00">Gateway Mesh</text>
<text xml:space="preserve" text-anchor="middle" x="389.5" y="-120.55" font-family="Helvetica,sans-Serif" font-size="11.00">Relay</text>
</g>
<!-- RCD&#45;&gt;RGM -->
<g id="edge2" class="edge">
<title>RCD&#45;&gt;RGM</title>
<path fill="none" stroke="black" d="M265.88,-118.49C283.3,-116.99 303.1,-116.28 321.1,-118 323.28,-118.21 325.49,-118.45 327.73,-118.73"/>
<polygon fill="black" stroke="black" points="327.07,-122.17 337.47,-120.12 328.06,-115.24 327.07,-122.17"/>
</g>
<!-- RGM&#45;&gt;RCD -->
<g id="edge3" class="edge">
<title>RGM&#45;&gt;RCD</title>
<path fill="none" stroke="black" stroke-dasharray="5,2" d="M338.75,-129.25C319.43,-128.57 297.13,-127.79 276.99,-127.08"/>
<polygon fill="black" stroke="black" points="277.36,-123.59 267.24,-126.74 277.12,-130.59 277.36,-123.59"/>
<text xml:space="preserve" text-anchor="middle" x="302.35" y="-140.99" font-family="Helvetica,sans-Serif" font-size="9.00">Wrapped</text>
<text xml:space="preserve" text-anchor="middle" x="302.35" y="-130.49" font-family="Helvetica,sans-Serif" font-size="9.00">packet</text>
</g>
<!-- BCD -->
<g id="node5" class="node">
<title>BCD</title>
<path fill="#e8f0fe" stroke="black" d="M426.4,-55C426.4,-55 352.6,-55 352.6,-55 346.6,-55 340.6,-49 340.6,-43 340.6,-43 340.6,-31 340.6,-31 340.6,-25 346.6,-19 352.6,-19 352.6,-19 426.4,-19 426.4,-19 432.4,-19 438.4,-25 438.4,-31 438.4,-31 438.4,-43 438.4,-43 438.4,-49 432.4,-55 426.4,-55"/>
<text xml:space="preserve" text-anchor="middle" x="389.5" y="-33.3" font-family="Helvetica,sans-Serif" font-size="11.00">Concentratord</text>
</g>
<!-- BHW&#45;&gt;BCD -->
<g id="edge5" class="edge">
<title>BHW&#45;&gt;BCD</title>
<path fill="none" stroke="black" d="M250.63,-37C272.76,-37 302.55,-37 328.78,-37"/>
<polygon fill="black" stroke="black" points="328.64,-40.5 338.64,-37 328.64,-33.5 328.64,-40.5"/>
<text xml:space="preserve" text-anchor="middle" x="302.35" y="-38.95" font-family="Helvetica,sans-Serif" font-size="9.00">SPI/USB</text>
</g>
<!-- BGM -->
<g id="node6" class="node">
<title>BGM</title>
<path fill="#fde8e8" stroke="black" d="M565.7,-57.7C565.7,-57.7 488.9,-57.7 488.9,-57.7 482.9,-57.7 476.9,-51.7 476.9,-45.7 476.9,-45.7 476.9,-28.3 476.9,-28.3 476.9,-22.3 482.9,-16.3 488.9,-16.3 488.9,-16.3 565.7,-16.3 565.7,-16.3 571.7,-16.3 577.7,-22.3 577.7,-28.3 577.7,-28.3 577.7,-45.7 577.7,-45.7 577.7,-51.7 571.7,-57.7 565.7,-57.7"/>
<text xml:space="preserve" text-anchor="middle" x="527.3" y="-40.05" font-family="Helvetica,sans-Serif" font-size="11.00">Gateway Mesh</text>
<text xml:space="preserve" text-anchor="middle" x="527.3" y="-26.55" font-family="Helvetica,sans-Serif" font-size="11.00">Border</text>
</g>
<!-- BCD&#45;&gt;BGM -->
<g id="edge6" class="edge">
<title>BCD&#45;&gt;BGM</title>
<path fill="none" stroke="black" d="M438.76,-37C447.44,-37 456.6,-37 465.58,-37"/>
<polygon fill="black" stroke="black" points="465.31,-40.5 475.31,-37 465.31,-33.5 465.31,-40.5"/>
</g>
<!-- RB -->
<g id="node7" class="node">
<title>RB</title>
<path fill="#d4edda" stroke="#28a745" stroke-width="2" d="M734.25,-57.7C734.25,-57.7 626.7,-57.7 626.7,-57.7 620.7,-57.7 614.7,-51.7 614.7,-45.7 614.7,-45.7 614.7,-28.3 614.7,-28.3 614.7,-22.3 620.7,-16.3 626.7,-16.3 626.7,-16.3 734.25,-16.3 734.25,-16.3 740.25,-16.3 746.25,-22.3 746.25,-28.3 746.25,-28.3 746.25,-45.7 746.25,-45.7 746.25,-51.7 740.25,-57.7 734.25,-57.7"/>
<text xml:space="preserve" text-anchor="middle" x="680.47" y="-40.05" font-family="Helvetica,sans-Serif" font-size="11.00">rak&#45;basicstation</text>
<text xml:space="preserve" text-anchor="middle" x="680.47" y="-26.55" font-family="Helvetica,sans-Serif" font-size="11.00">context_caching=true</text>
</g>
<!-- BGM&#45;&gt;RB -->
<g id="edge7" class="edge">
<title>BGM&#45;&gt;RB</title>
<path fill="none" stroke="black" d="M577.8,-37C585.73,-37 594.1,-37 602.5,-37"/>
<polygon fill="black" stroke="black" points="602.4,-40.5 612.4,-37 602.4,-33.5 602.4,-40.5"/>
</g>
<!-- LNS -->
<g id="node8" class="node">
<title>LNS</title>
<path fill="#fff3cd" stroke="black" d="M925.8,-57.7C925.8,-57.7 845.25,-57.7 845.25,-57.7 839.25,-57.7 833.25,-51.7 833.25,-45.7 833.25,-45.7 833.25,-28.3 833.25,-28.3 833.25,-22.3 839.25,-16.3 845.25,-16.3 845.25,-16.3 925.8,-16.3 925.8,-16.3 931.8,-16.3 937.8,-22.3 937.8,-28.3 937.8,-28.3 937.8,-45.7 937.8,-45.7 937.8,-51.7 931.8,-57.7 925.8,-57.7"/>
<text xml:space="preserve" text-anchor="middle" x="885.52" y="-40.05" font-family="Helvetica,sans-Serif" font-size="11.00">LoRaWAN</text>
<text xml:space="preserve" text-anchor="middle" x="885.52" y="-26.55" font-family="Helvetica,sans-Serif" font-size="11.00">Network Server</text>
</g>
<!-- RB&#45;&gt;LNS -->
<g id="edge9" class="edge">
<title>RB&#45;&gt;LNS</title>
<path fill="none" stroke="#0366d6" stroke-width="2" d="M747.12,-37C770.47,-37 796.74,-37 820,-37"/>
<polygon fill="#0366d6" stroke="#0366d6" stroke-width="2" points="819.91,-40.5 829.91,-37 819.91,-33.5 819.91,-40.5"/>
<text xml:space="preserve" text-anchor="middle" x="789.75" y="-49.45" font-family="Helvetica,sans-Serif" font-size="9.00">WebSocket</text>
<text xml:space="preserve" text-anchor="middle" x="789.75" y="-38.95" font-family="Helvetica,sans-Serif" font-size="9.00">BasicStation</text>
</g>
</g>
</svg>
