<?xml version="1.0" encoding="UTF-8" standalone="no"?>
<!DOCTYPE svg PUBLIC "-//W3C//DTD SVG 1.1//EN"
 "http://www.w3.org/Graphics/SVG/1.1/DTD/svg11.dtd">
<!-- Generated by graphviz version 13.1.2 (20250808.2320)
 -->
<!-- Title: topology1 Pages: 1 -->
<svg width="654pt" height="145pt"
 viewBox="0.00 0.00 654.00 145.00" xmlns="http://www.w3.org/2000/svg" xmlns:xlink="http://www.w3.org/1999/xlink">
<g id="graph0" class="graph" transform="scale(1 1) rotate(0) translate(4 141)">
<title>topology1</title>
<g id="clust1" class="cluster">
<title>cluster_gateway</title>
<path fill="none" stroke="#555555" stroke-dasharray="5,2" d="M20,-8C20,-8 450.15,-8 450.15,-8 456.15,-8 462.15,-14 462.15,-20 462.15,-20 462.15,-117 462.15,-117 462.15,-123 456.15,-129 450.15,-129 450.15,-129 20,-129 20,-129 14,-129 8,-123 8,-117 8,-117 8,-20 8,-20 8,-14 14,-8 20,-8"/>
<text xml:space="preserve" text-anchor="middle" x="39.62" y="-113.6" font-family="Helvetica,sans-Serif" font-size="12.00">Gateway</text>
</g>
<!-- HW -->
<g id="node1" class="node">
<title>HW</title>
<path fill="#e8f0fe" stroke="black" d="M71.05,-77.7C71.05,-77.7 28,-77.7 28,-77.7 22,-77.7 16,-71.7 16,-65.7 16,-65.7 16,-48.3 16,-48.3 16,-42.3 22,-36.3 28,-36.3 28,-36.3 71.05,-36.3 71.05,-36.3 77.05,-36.3 83.05,-42.3 83.05,-48.3 83.05,-48.3 83.05,-65.7 83.05,-65.7 83.05,-71.7 77.05,-77.7 71.05,-77.7"/>
<text xml:space="preserve" text-anchor="middle" x="49.52" y="-60.05" font-family="Helvetica,sans-Serif" font-size="11.00">SX130x</text>
<text xml:space="preserve" text-anchor="middle" x="49.52" y="-46.55" font-family="Helvetica,sans-Serif" font-size="11.00">Radio</text>
</g>
<!-- CD -->
<g id="node2" class="node">
<title>CD</title>
<path fill="#e8f0fe" stroke="black" d="M240.1,-77.7C240.1,-77.7 166.3,-77.7 166.3,-77.7 160.3,-77.7 154.3,-71.7 154.3,-65.7 154.3,-65.7 154.3,-48.3 154.3,-48.3 154.3,-42.3 160.3,-36.3 166.3,-36.3 166.3,-36.3 240.1,-36.3 240.1,-36.3 246.1,-36.3 252.1,-42.3 252.1,-48.3 252.1,-48.3 252.1,-65.7 252.1,-65.7 252.1,-71.7 246.1,-77.7 240.1,-77.7"/>
<text xml:space="preserve" text-anchor="middle" x="203.2" y="-60.05" font-family="Helvetica,sans-Serif" font-size="11.00">ChirpStack</text>
<text xml:space="preserve" text-anchor="middle" x="203.2" y="-46.55" font-family="Helvetica,sans-Serif" font-size="11.00">Concentratord</text>
</g>
<!-- HW&#45;&gt;CD -->
<g id="edge1" class="edge">
<title>HW&#45;&gt;CD</title>
<path fill="none" stroke="black" d="M83.44,-57C100.78,-57 122.59,-57 142.77,-57"/>
<polygon fill="black" stroke="black" points="142.58,-60.5 152.58,-57 142.58,-53.5 142.58,-60.5"/>
<text xml:space="preserve" text-anchor="middle" x="118.67" y="-58.95" font-family="Helvetica,sans-Serif" font-size="9.00">SPI/USB</text>
</g>
<!-- RB -->
<g id="node3" class="node">
<title>RB</title>
<path fill="#d4edda" stroke="#28a745" stroke-width="2" d="M442.15,-74C442.15,-74 362.35,-74 362.35,-74 356.35,-74 350.35,-68 350.35,-62 350.35,-62 350.35,-50 350.35,-50 350.35,-44 356.35,-38 362.35,-38 362.35,-38 442.15,-38 442.15,-38 448.15,-38 454.15,-44 454.15,-50 454.15,-50 454.15,-62 454.15,-62 454.15,-68 448.15,-74 442.15,-74"/>
<text xml:space="preserve" text-anchor="middle" x="402.25" y="-52.3" font-family="Helvetica,sans-Serif" font-size="11.00">rak&#45;basicstation</text>
</g>
<!-- CD&#45;&gt;RB -->
<g id="edge2" class="edge">
<title>CD&#45;&gt;RB</title>
<path fill="none" stroke="black" d="M252.34,-38.97C258.25,-37.34 264.27,-35.95 270.1,-35 297.41,-30.56 304.99,-30.92 332.35,-35 334.39,-35.3 336.46,-35.66 338.54,-36.05"/>
<polygon fill="black" stroke="black" points="337.71,-39.45 348.23,-38.18 339.21,-32.62 337.71,-39.45"/>
<text xml:space="preserve" text-anchor="middle" x="301.22" y="-47.45" font-family="Helvetica,sans-Serif" font-size="9.00">ZMQ PUB/SUB</text>
<text xml:space="preserve" text-anchor="middle" x="301.22" y="-36.95" font-family="Helvetica,sans-Serif" font-size="9.00">events</text>
</g>
<!-- RB&#45;&gt;CD -->
<g id="edge3" class="edge">
<title>RB&#45;&gt;CD</title>
<path fill="none" stroke="black" stroke-dasharray="5,2" d="M349.4,-56.26C323.12,-56.4 291.07,-56.56 263.78,-56.7"/>
<polygon fill="black" stroke="black" points="263.9,-53.2 253.92,-56.75 263.94,-60.2 263.9,-53.2"/>
<text xml:space="preserve" text-anchor="middle" x="301.22" y="-69.1" font-family="Helvetica,sans-Serif" font-size="9.00">ZMQ REQ/REP</text>
<text xml:space="preserve" text-anchor="middle" x="301.22" y="-58.6" font-family="Helvetica,sans-Serif" font-size="9.00">commands</text>
</g>
<!-- LNS -->
<g id="node4" class="node">
<title>LNS</title>
<path fill="#fff3cd" stroke="black" d="M633.7,-76.7C633.7,-76.7 553.15,-76.7 553.15,-76.7 547.15,-76.7 541.15,-70.7 541.15,-64.7 541.15,-64.7 541.15,-47.3 541.15,-47.3 541.15,-41.3 547.15,-35.3 553.15,-35.3 553.15,-35.3 633.7,-35.3 633.7,-35.3 639.7,-35.3 645.7,-41.3 645.7,-47.3 645.7,-47.3 645.7,-64.7 645.7,-64.7 645.7,-70.7 639.7,-76.7 633.7,-76.7"/>
<text xml:space="preserve" text-anchor="middle" x="593.42" y="-59.05" font-family="Helvetica,sans-Serif" font-size="11.00">LoRaWAN</text>
<text xml:space="preserve" text-anchor="middle" x="593.42" y="-45.55" font-family="Helvetica,sans-Serif" font-size="11.00">Network Server</text>
</g>
<!-- RB&#45;&gt;LNS -->
<g id="edge4" class="edge">
<title>RB&#45;&gt;LNS</title>
<path fill="none" stroke="#0366d6" stroke-width="2" d="M454.94,-56C477.46,-56 504.1,-56 527.91,-56"/>
<polygon fill="#0366d6" stroke="#0366d6" stroke-width="2" points="527.77,-59.5 537.77,-56 527.77,-52.5 527.77,-59.5"/>
<text xml:space="preserve" text-anchor="middle" x="497.65" y="-68.45" font-family="Helvetica,sans-Serif" font-size="9.00">WebSocket</text>
<text xml:space="preserve" text-anchor="middle" x="497.65" y="-57.95" font-family="Helvetica,sans-Serif" font-size="9.00">BasicStation</text>
</g>
</g>
</svg>
