<?xml version="1.0" encoding="UTF-8" standalone="no"?>
<!DOCTYPE svg PUBLIC "-//W3C//DTD SVG 1.1//EN"
 "http://www.w3.org/Graphics/SVG/1.1/DTD/svg11.dtd">
<!-- Generated by graphviz version 13.1.2 (20250808.2320)
 -->
<!-- Title: topology2 Pages: 1 -->
<svg width="668pt" height="104pt"
 viewBox="0.00 0.00 668.00 104.00" xmlns="http://www.w3.org/2000/svg" xmlns:xlink="http://www.w3.org/1999/xlink">
<g id="graph0" class="graph" transform="scale(1 1) rotate(0) translate(4 100)">
<title>topology2</title>
<g id="clust1" class="cluster">
<title>cluster_gateway</title>
<path fill="none" stroke="#555555" stroke-dasharray="5,2" d="M20,-8C20,-8 464.4,-8 464.4,-8 470.4,-8 476.4,-14 476.4,-20 476.4,-20 476.4,-76 476.4,-76 476.4,-82 470.4,-88 464.4,-88 464.4,-88 20,-88 20,-88 14,-88 8,-82 8,-76 8,-76 8,-20 8,-20 8,-14 14,-8 20,-8"/>
<text xml:space="preserve" text-anchor="middle" x="39.62" y="-72.6" font-family="Helvetica,sans-Serif" font-size="12.00">Gateway</text>
</g>
<!-- HW -->
<g id="node1" class="node">
<title>HW</title>
<path fill="#e8f0fe" stroke="black" d="M71.05,-57.7C71.05,-57.7 28,-57.7 28,-57.7 22,-57.7 16,-51.7 16,-45.7 16,-45.7 16,-28.3 16,-28.3 16,-22.3 22,-16.3 28,-16.3 28,-16.3 71.05,-16.3 71.05,-16.3 77.05,-16.3 83.05,-22.3 83.05,-28.3 83.05,-28.3 83.05,-45.7 83.05,-45.7 83.05,-51.7 77.05,-57.7 71.05,-57.7"/>
<text xml:space="preserve" text-anchor="middle" x="49.52" y="-40.05" font-family="Helvetica,sans-Serif" font-size="11.00">SX130x</text>
<text xml:space="preserve" text-anchor="middle" x="49.52" y="-26.55" font-family="Helvetica,sans-Serif" font-size="11.00">Radio</text>
</g>
<!-- PF -->
<g id="node2" class="node">
<title>PF</title>
<path fill="#f0e8fe" stroke="black" d="M258.85,-57.7C258.85,-57.7 166.3,-57.7 166.3,-57.7 160.3,-57.7 154.3,-51.7 154.3,-45.7 154.3,-45.7 154.3,-28.3 154.3,-28.3 154.3,-22.3 160.3,-16.3 166.3,-16.3 166.3,-16.3 258.85,-16.3 258.85,-16.3 264.85,-16.3 270.85,-22.3 270.85,-28.3 270.85,-28.3 270.85,-45.7 270.85,-45.7 270.85,-51.7 264.85,-57.7 258.85,-57.7"/>
<text xml:space="preserve" text-anchor="middle" x="212.57" y="-40.05" font-family="Helvetica,sans-Serif" font-size="11.00">lora_pkt_fwd</text>
<text xml:space="preserve" text-anchor="middle" x="212.57" y="-26.55" font-family="Helvetica,sans-Serif" font-size="11.00">Legacy Forwarder</text>
</g>
<!-- HW&#45;&gt;PF -->
<g id="edge1" class="edge">
<title>HW&#45;&gt;PF</title>
<path fill="none" stroke="black" d="M83.5,-37C100.59,-37 122.12,-37 142.62,-37"/>
<polygon fill="black" stroke="black" points="142.36,-40.5 152.36,-37 142.36,-33.5 142.36,-40.5"/>
<text xml:space="preserve" text-anchor="middle" x="118.67" y="-38.95" font-family="Helvetica,sans-Serif" font-size="9.00">SPI/USB</text>
</g>
<!-- RB -->
<g id="node3" class="node">
<title>RB</title>
<path fill="#d4edda" stroke="#28a745" stroke-width="2" d="M456.4,-55C456.4,-55 376.6,-55 376.6,-55 370.6,-55 364.6,-49 364.6,-43 364.6,-43 364.6,-31 364.6,-31 364.6,-25 370.6,-19 376.6,-19 376.6,-19 456.4,-19 456.4,-19 462.4,-19 468.4,-25 468.4,-31 468.4,-31 468.4,-43 468.4,-43 468.4,-49 462.4,-55 456.4,-55"/>
<text xml:space="preserve" text-anchor="middle" x="416.5" y="-33.3" font-family="Helvetica,sans-Serif" font-size="11.00">rak&#45;basicstation</text>
</g>
<!-- PF&#45;&gt;RB -->
<g id="edge2" class="edge">
<title>PF&#45;&gt;RB</title>
<path fill="none" stroke="black" d="M271.17,-37C296.55,-37 326.46,-37 352.44,-37"/>
<polygon fill="black" stroke="black" points="352.18,-40.5 362.18,-37 352.18,-33.5 352.18,-40.5"/>
<text xml:space="preserve" text-anchor="middle" x="317.72" y="-49.45" font-family="Helvetica,sans-Serif" font-size="9.00">Semtech UDP</text>
<text xml:space="preserve" text-anchor="middle" x="317.72" y="-38.95" font-family="Helvetica,sans-Serif" font-size="9.00">port 1700</text>
</g>
<!-- LNS -->
<g id="node4" class="node">
<title>LNS</title>
<path fill="#fff3cd" stroke="black" d="M647.95,-57.7C647.95,-57.7 567.4,-57.7 567.4,-57.7 561.4,-57.7 555.4,-51.7 555.4,-45.7 555.4,-45.7 555.4,-28.3 555.4,-28.3 555.4,-22.3 561.4,-16.3 567.4,-16.3 567.4,-16.3 647.95,-16.3 647.95,-16.3 653.95,-16.3 659.95,-22.3 659.95,-28.3 659.95,-28.3 659.95,-45.7 659.95,-45.7 659.95,-51.7 653.95,-57.7 647.95,-57.7"/>
<text xml:space="preserve" text-anchor="middle" x="607.67" y="-40.05" font-family="Helvetica,sans-Serif" font-size="11.00">LoRaWAN</text>
<text xml:space="preserve" text-anchor="middle" x="607.67" y="-26.55" font-family="Helvetica,sans-Serif" font-size="11.00">Network Server</text>
</g>
<!-- RB&#45;&gt;LNS -->
<g id="edge3" class="edge">
<title>RB&#45;&gt;LNS</title>
<path fill="none" stroke="#0366d6" stroke-width="2" d="M469.19,-37C491.71,-37 518.35,-37 542.16,-37"/>
<polygon fill="#0366d6" stroke="#0366d6" stroke-width="2" points="542.02,-40.5 552.02,-37 542.02,-33.5 542.02,-40.5"/>
<text xml:space="preserve" text-anchor="middle" x="511.9" y="-49.45" font-family="Helvetica,sans-Serif" font-size="9.00">WebSocket</text>
<text xml:space="preserve" text-anchor="middle" x="511.9" y="-38.95" font-family="Helvetica,sans-Serif" font-size="9.00">BasicStation</text>
</g>
</g>
</svg>
